# xmcd
#
# Track frame offsets: 
#        150
#        25105
#        36273
#        57189
#        67919
#        80162
#        92008
#        109203
#        126991
#        147127
#        161710
#        184670
#        194601
#        222846
#
# Disc length: 3444 seconds
#
# Revision: 0
# Processed by: cddbd v1.5.2PL0 Copyright (c) Steve Scherf et al.
# Submitted via: ExactAudioCopyFreeDBPlugin 1.0
#
DISCID=c90d720e
DTITLE=John Verity - Zep It Up!
DYEAR=2015
DGENRE=Blues
TTITLE0=Whole Lotta Love
TTITLE1=Communication Breakdown
TTITLE2=Black Dog
TTITLE3=Bring It On Home
TTITLE4=Good Times Bad Times
TTITLE5=Living Loving Maid
TTITLE6=Heartbreaker
TTITLE7=D'yer Maker
TTITLE8=The Ocean
TTITLE9=Rock and Roll
TTITLE10=Lemon Song
TTITLE11=Immigrant Song
TTITLE12=Dazed and Confused
TTITLE13=Stairway to Heaven
EXTD=
EXTT0=
EXTT1=
EXTT2=
EXTT3=
EXTT4=
EXTT5=
EXTT6=
EXTT7=
EXTT8=
EXTT9=
EXTT10=
EXTT11=
EXTT12=
EXTT13=
PLAYORDER=
